<mxfile modified="2020-01-27T11:56:51.104Z" host="www.draw.io" agent="Mozilla/5.0 (Macintosh; Intel Mac OS X 10_14_5) AppleWebKit/537.36 (KHTML, like Gecko) Chrome/79.0.3945.130 Safari/537.36" etag="fxuMeqpULCxgbQ1KAIPJ" version="12.5.8" type="github">
  <diagram id="ZgA_se8g6kqFkw-I2ETg" name="Page-1">
    <mxGraphModel dx="1142" dy="617" grid="1" gridSize="10" guides="1" tooltips="1" connect="1" arrows="1" fold="1" page="1" pageScale="1" pageWidth="827" pageHeight="1169" math="0" shadow="0">
      <root>
        <mxCell id="0"/>
        <mxCell id="1" parent="0"/>
        <mxCell id="xjDYs35orbcpSof1dm27-84" value="" style="group" parent="1" vertex="1" connectable="0">
          <mxGeometry x="36" y="70" width="563" height="271" as="geometry"/>
        </mxCell>
        <mxCell id="ys9xgW5buFZI1dKk__pX-2" value="" style="whiteSpace=wrap;html=1;aspect=fixed;fillColor=#f5f5f5;strokeColor=#666666;fontColor=#333333;" parent="xjDYs35orbcpSof1dm27-84" vertex="1">
          <mxGeometry x="84" y="210" width="30" height="30" as="geometry"/>
        </mxCell>
        <mxCell id="ys9xgW5buFZI1dKk__pX-3" value="" style="whiteSpace=wrap;html=1;aspect=fixed;fillColor=#f5f5f5;strokeColor=#666666;fontColor=#333333;" parent="xjDYs35orbcpSof1dm27-84" vertex="1">
          <mxGeometry x="164" y="210" width="30" height="30" as="geometry"/>
        </mxCell>
        <mxCell id="ys9xgW5buFZI1dKk__pX-4" value="" style="whiteSpace=wrap;html=1;aspect=fixed;fillColor=#f5f5f5;strokeColor=#666666;fontColor=#333333;" parent="xjDYs35orbcpSof1dm27-84" vertex="1">
          <mxGeometry x="244" y="210" width="30" height="30" as="geometry"/>
        </mxCell>
        <mxCell id="ys9xgW5buFZI1dKk__pX-5" value="" style="whiteSpace=wrap;html=1;aspect=fixed;fillColor=#f5f5f5;strokeColor=#666666;fontColor=#333333;" parent="xjDYs35orbcpSof1dm27-84" vertex="1">
          <mxGeometry x="324" y="210" width="30" height="30" as="geometry"/>
        </mxCell>
        <mxCell id="ys9xgW5buFZI1dKk__pX-6" value="" style="whiteSpace=wrap;html=1;aspect=fixed;fillColor=#f5f5f5;strokeColor=#666666;fontColor=#333333;" parent="xjDYs35orbcpSof1dm27-84" vertex="1">
          <mxGeometry x="404" y="210" width="30" height="30" as="geometry"/>
        </mxCell>
        <mxCell id="ys9xgW5buFZI1dKk__pX-7" value="" style="whiteSpace=wrap;html=1;aspect=fixed;fillColor=#f5f5f5;strokeColor=#666666;fontColor=#333333;" parent="xjDYs35orbcpSof1dm27-84" vertex="1">
          <mxGeometry x="484" y="210" width="30" height="30" as="geometry"/>
        </mxCell>
        <mxCell id="xjDYs35orbcpSof1dm27-42" style="edgeStyle=none;rounded=0;orthogonalLoop=1;jettySize=auto;html=1;exitX=0;exitY=0.5;exitDx=0;exitDy=0;startArrow=none;startFill=0;endArrow=classic;endFill=1;" parent="xjDYs35orbcpSof1dm27-84" source="xjDYs35orbcpSof1dm27-1" edge="1">
          <mxGeometry relative="1" as="geometry">
            <mxPoint x="34" y="155" as="targetPoint"/>
          </mxGeometry>
        </mxCell>
        <mxCell id="xjDYs35orbcpSof1dm27-1" value="" style="rounded=1;whiteSpace=wrap;html=1;fillColor=#dae8fc;strokeColor=#6c8ebf;" parent="xjDYs35orbcpSof1dm27-84" vertex="1">
          <mxGeometry x="108" y="140" width="30" height="30" as="geometry"/>
        </mxCell>
        <mxCell id="xjDYs35orbcpSof1dm27-43" style="edgeStyle=none;rounded=0;orthogonalLoop=1;jettySize=auto;html=1;exitX=0;exitY=0.5;exitDx=0;exitDy=0;startArrow=classic;startFill=1;endArrow=none;endFill=0;" parent="xjDYs35orbcpSof1dm27-84" source="xjDYs35orbcpSof1dm27-2" edge="1">
          <mxGeometry relative="1" as="geometry">
            <mxPoint x="34" y="115" as="targetPoint"/>
          </mxGeometry>
        </mxCell>
        <mxCell id="xjDYs35orbcpSof1dm27-2" value="" style="rounded=1;whiteSpace=wrap;html=1;fillColor=#fff2cc;strokeColor=#d6b656;" parent="xjDYs35orbcpSof1dm27-84" vertex="1">
          <mxGeometry x="54" y="100" width="30" height="30" as="geometry"/>
        </mxCell>
        <mxCell id="xjDYs35orbcpSof1dm27-7" style="rounded=0;orthogonalLoop=1;jettySize=auto;html=1;exitX=0.5;exitY=0;exitDx=0;exitDy=0;entryX=0.5;entryY=1;entryDx=0;entryDy=0;" parent="xjDYs35orbcpSof1dm27-84" source="ys9xgW5buFZI1dKk__pX-2" target="xjDYs35orbcpSof1dm27-2" edge="1">
          <mxGeometry relative="1" as="geometry"/>
        </mxCell>
        <mxCell id="xjDYs35orbcpSof1dm27-4" value="" style="endArrow=classic;html=1;exitX=0.5;exitY=0;exitDx=0;exitDy=0;entryX=0.5;entryY=1;entryDx=0;entryDy=0;" parent="xjDYs35orbcpSof1dm27-84" source="ys9xgW5buFZI1dKk__pX-2" target="xjDYs35orbcpSof1dm27-1" edge="1">
          <mxGeometry width="50" height="50" relative="1" as="geometry">
            <mxPoint x="54" y="310" as="sourcePoint"/>
            <mxPoint x="104" y="260" as="targetPoint"/>
          </mxGeometry>
        </mxCell>
        <mxCell id="xjDYs35orbcpSof1dm27-8" style="rounded=0;orthogonalLoop=1;jettySize=auto;html=1;exitX=0.5;exitY=0;exitDx=0;exitDy=0;entryX=0.5;entryY=1;entryDx=0;entryDy=0;" parent="xjDYs35orbcpSof1dm27-84" target="xjDYs35orbcpSof1dm27-10" edge="1">
          <mxGeometry relative="1" as="geometry">
            <mxPoint x="179" y="210" as="sourcePoint"/>
          </mxGeometry>
        </mxCell>
        <mxCell id="xjDYs35orbcpSof1dm27-40" style="edgeStyle=none;rounded=0;orthogonalLoop=1;jettySize=auto;html=1;exitX=1;exitY=0.5;exitDx=0;exitDy=0;entryX=0;entryY=0.5;entryDx=0;entryDy=0;startArrow=classic;startFill=1;endArrow=none;endFill=0;" parent="xjDYs35orbcpSof1dm27-84" target="xjDYs35orbcpSof1dm27-13" edge="1">
          <mxGeometry relative="1" as="geometry">
            <mxPoint x="218" y="155" as="sourcePoint"/>
          </mxGeometry>
        </mxCell>
        <mxCell id="xjDYs35orbcpSof1dm27-9" value="" style="rounded=1;whiteSpace=wrap;html=1;fillColor=#dae8fc;strokeColor=#6c8ebf;" parent="xjDYs35orbcpSof1dm27-84" vertex="1">
          <mxGeometry x="189" y="140" width="30" height="30" as="geometry"/>
        </mxCell>
        <mxCell id="xjDYs35orbcpSof1dm27-41" style="edgeStyle=none;rounded=0;orthogonalLoop=1;jettySize=auto;html=1;exitX=1;exitY=0.5;exitDx=0;exitDy=0;entryX=0;entryY=0.5;entryDx=0;entryDy=0;startArrow=classic;startFill=1;endArrow=none;endFill=0;" parent="xjDYs35orbcpSof1dm27-84" source="xjDYs35orbcpSof1dm27-1" target="xjDYs35orbcpSof1dm27-9" edge="1">
          <mxGeometry relative="1" as="geometry"/>
        </mxCell>
        <mxCell id="xjDYs35orbcpSof1dm27-10" value="" style="rounded=1;whiteSpace=wrap;html=1;fillColor=#fff2cc;strokeColor=#d6b656;" parent="xjDYs35orbcpSof1dm27-84" vertex="1">
          <mxGeometry x="134" y="100" width="30" height="30" as="geometry"/>
        </mxCell>
        <mxCell id="xjDYs35orbcpSof1dm27-44" style="edgeStyle=none;rounded=0;orthogonalLoop=1;jettySize=auto;html=1;exitX=1;exitY=0.5;exitDx=0;exitDy=0;entryX=0;entryY=0.5;entryDx=0;entryDy=0;startArrow=none;startFill=0;endArrow=classic;endFill=1;" parent="xjDYs35orbcpSof1dm27-84" source="xjDYs35orbcpSof1dm27-2" target="xjDYs35orbcpSof1dm27-10" edge="1">
          <mxGeometry relative="1" as="geometry"/>
        </mxCell>
        <mxCell id="xjDYs35orbcpSof1dm27-11" value="" style="endArrow=classic;html=1;exitX=0.5;exitY=0;exitDx=0;exitDy=0;entryX=0.5;entryY=1;entryDx=0;entryDy=0;" parent="xjDYs35orbcpSof1dm27-84" target="xjDYs35orbcpSof1dm27-9" edge="1">
          <mxGeometry width="50" height="50" relative="1" as="geometry">
            <mxPoint x="179" y="210" as="sourcePoint"/>
            <mxPoint x="184" y="260" as="targetPoint"/>
          </mxGeometry>
        </mxCell>
        <mxCell id="xjDYs35orbcpSof1dm27-12" style="rounded=0;orthogonalLoop=1;jettySize=auto;html=1;exitX=0.5;exitY=0;exitDx=0;exitDy=0;entryX=0.5;entryY=1;entryDx=0;entryDy=0;" parent="xjDYs35orbcpSof1dm27-84" target="xjDYs35orbcpSof1dm27-14" edge="1">
          <mxGeometry relative="1" as="geometry">
            <mxPoint x="260.5" y="210" as="sourcePoint"/>
          </mxGeometry>
        </mxCell>
        <mxCell id="xjDYs35orbcpSof1dm27-13" value="" style="rounded=1;whiteSpace=wrap;html=1;fillColor=#dae8fc;strokeColor=#6c8ebf;" parent="xjDYs35orbcpSof1dm27-84" vertex="1">
          <mxGeometry x="269.5" y="140" width="30" height="30" as="geometry"/>
        </mxCell>
        <mxCell id="xjDYs35orbcpSof1dm27-14" value="" style="rounded=1;whiteSpace=wrap;html=1;fillColor=#fff2cc;strokeColor=#d6b656;" parent="xjDYs35orbcpSof1dm27-84" vertex="1">
          <mxGeometry x="215.5" y="100" width="30" height="30" as="geometry"/>
        </mxCell>
        <mxCell id="xjDYs35orbcpSof1dm27-45" style="edgeStyle=none;rounded=0;orthogonalLoop=1;jettySize=auto;html=1;exitX=1;exitY=0.5;exitDx=0;exitDy=0;entryX=0;entryY=0.5;entryDx=0;entryDy=0;startArrow=none;startFill=0;endArrow=classic;endFill=1;" parent="xjDYs35orbcpSof1dm27-84" source="xjDYs35orbcpSof1dm27-10" target="xjDYs35orbcpSof1dm27-14" edge="1">
          <mxGeometry relative="1" as="geometry"/>
        </mxCell>
        <mxCell id="xjDYs35orbcpSof1dm27-15" value="" style="endArrow=classic;html=1;exitX=0.5;exitY=0;exitDx=0;exitDy=0;entryX=0.5;entryY=1;entryDx=0;entryDy=0;" parent="xjDYs35orbcpSof1dm27-84" target="xjDYs35orbcpSof1dm27-13" edge="1">
          <mxGeometry width="50" height="50" relative="1" as="geometry">
            <mxPoint x="260.5" y="210" as="sourcePoint"/>
            <mxPoint x="265.5" y="260" as="targetPoint"/>
          </mxGeometry>
        </mxCell>
        <mxCell id="xjDYs35orbcpSof1dm27-16" style="rounded=0;orthogonalLoop=1;jettySize=auto;html=1;exitX=0.5;exitY=0;exitDx=0;exitDy=0;entryX=0.5;entryY=1;entryDx=0;entryDy=0;" parent="xjDYs35orbcpSof1dm27-84" target="xjDYs35orbcpSof1dm27-18" edge="1">
          <mxGeometry relative="1" as="geometry">
            <mxPoint x="340.5" y="210" as="sourcePoint"/>
          </mxGeometry>
        </mxCell>
        <mxCell id="xjDYs35orbcpSof1dm27-17" value="" style="rounded=1;whiteSpace=wrap;html=1;fillColor=#dae8fc;strokeColor=#6c8ebf;" parent="xjDYs35orbcpSof1dm27-84" vertex="1">
          <mxGeometry x="350.5" y="140" width="30" height="30" as="geometry"/>
        </mxCell>
        <mxCell id="xjDYs35orbcpSof1dm27-39" style="edgeStyle=none;rounded=0;orthogonalLoop=1;jettySize=auto;html=1;exitX=1;exitY=0.5;exitDx=0;exitDy=0;entryX=0;entryY=0.5;entryDx=0;entryDy=0;startArrow=classic;startFill=1;endArrow=none;endFill=0;" parent="xjDYs35orbcpSof1dm27-84" source="xjDYs35orbcpSof1dm27-13" target="xjDYs35orbcpSof1dm27-17" edge="1">
          <mxGeometry relative="1" as="geometry"/>
        </mxCell>
        <mxCell id="xjDYs35orbcpSof1dm27-18" value="" style="rounded=1;whiteSpace=wrap;html=1;fillColor=#fff2cc;strokeColor=#d6b656;" parent="xjDYs35orbcpSof1dm27-84" vertex="1">
          <mxGeometry x="295.5" y="100" width="30" height="30" as="geometry"/>
        </mxCell>
        <mxCell id="xjDYs35orbcpSof1dm27-46" style="edgeStyle=none;rounded=0;orthogonalLoop=1;jettySize=auto;html=1;exitX=1;exitY=0.5;exitDx=0;exitDy=0;entryX=0;entryY=0.5;entryDx=0;entryDy=0;startArrow=none;startFill=0;endArrow=classic;endFill=1;" parent="xjDYs35orbcpSof1dm27-84" source="xjDYs35orbcpSof1dm27-14" target="xjDYs35orbcpSof1dm27-18" edge="1">
          <mxGeometry relative="1" as="geometry"/>
        </mxCell>
        <mxCell id="xjDYs35orbcpSof1dm27-19" value="" style="endArrow=classic;html=1;exitX=0.5;exitY=0;exitDx=0;exitDy=0;entryX=0.5;entryY=1;entryDx=0;entryDy=0;" parent="xjDYs35orbcpSof1dm27-84" target="xjDYs35orbcpSof1dm27-17" edge="1">
          <mxGeometry width="50" height="50" relative="1" as="geometry">
            <mxPoint x="340.5" y="210" as="sourcePoint"/>
            <mxPoint x="345.5" y="260" as="targetPoint"/>
          </mxGeometry>
        </mxCell>
        <mxCell id="xjDYs35orbcpSof1dm27-20" style="rounded=0;orthogonalLoop=1;jettySize=auto;html=1;exitX=0.5;exitY=0;exitDx=0;exitDy=0;entryX=0.5;entryY=1;entryDx=0;entryDy=0;" parent="xjDYs35orbcpSof1dm27-84" target="xjDYs35orbcpSof1dm27-22" edge="1">
          <mxGeometry relative="1" as="geometry">
            <mxPoint x="420" y="210" as="sourcePoint"/>
          </mxGeometry>
        </mxCell>
        <mxCell id="xjDYs35orbcpSof1dm27-21" value="" style="rounded=1;whiteSpace=wrap;html=1;fillColor=#dae8fc;strokeColor=#6c8ebf;" parent="xjDYs35orbcpSof1dm27-84" vertex="1">
          <mxGeometry x="429" y="140" width="30" height="30" as="geometry"/>
        </mxCell>
        <mxCell id="xjDYs35orbcpSof1dm27-38" style="edgeStyle=none;rounded=0;orthogonalLoop=1;jettySize=auto;html=1;exitX=1;exitY=0.5;exitDx=0;exitDy=0;entryX=0;entryY=0.5;entryDx=0;entryDy=0;startArrow=classic;startFill=1;endArrow=none;endFill=0;" parent="xjDYs35orbcpSof1dm27-84" source="xjDYs35orbcpSof1dm27-17" target="xjDYs35orbcpSof1dm27-21" edge="1">
          <mxGeometry relative="1" as="geometry"/>
        </mxCell>
        <mxCell id="xjDYs35orbcpSof1dm27-22" value="" style="rounded=1;whiteSpace=wrap;html=1;fillColor=#fff2cc;strokeColor=#d6b656;" parent="xjDYs35orbcpSof1dm27-84" vertex="1">
          <mxGeometry x="375" y="100" width="30" height="30" as="geometry"/>
        </mxCell>
        <mxCell id="xjDYs35orbcpSof1dm27-47" style="edgeStyle=none;rounded=0;orthogonalLoop=1;jettySize=auto;html=1;exitX=1;exitY=0.5;exitDx=0;exitDy=0;entryX=0;entryY=0.5;entryDx=0;entryDy=0;startArrow=none;startFill=0;endArrow=classic;endFill=1;" parent="xjDYs35orbcpSof1dm27-84" source="xjDYs35orbcpSof1dm27-18" target="xjDYs35orbcpSof1dm27-22" edge="1">
          <mxGeometry relative="1" as="geometry"/>
        </mxCell>
        <mxCell id="xjDYs35orbcpSof1dm27-23" value="" style="endArrow=classic;html=1;exitX=0.5;exitY=0;exitDx=0;exitDy=0;entryX=0.5;entryY=1;entryDx=0;entryDy=0;" parent="xjDYs35orbcpSof1dm27-84" target="xjDYs35orbcpSof1dm27-21" edge="1">
          <mxGeometry width="50" height="50" relative="1" as="geometry">
            <mxPoint x="420" y="210" as="sourcePoint"/>
            <mxPoint x="425" y="260" as="targetPoint"/>
          </mxGeometry>
        </mxCell>
        <mxCell id="xjDYs35orbcpSof1dm27-24" style="rounded=0;orthogonalLoop=1;jettySize=auto;html=1;exitX=0.5;exitY=0;exitDx=0;exitDy=0;entryX=0.5;entryY=1;entryDx=0;entryDy=0;" parent="xjDYs35orbcpSof1dm27-84" target="xjDYs35orbcpSof1dm27-26" edge="1">
          <mxGeometry relative="1" as="geometry">
            <mxPoint x="500" y="210" as="sourcePoint"/>
          </mxGeometry>
        </mxCell>
        <mxCell id="xjDYs35orbcpSof1dm27-29" style="edgeStyle=none;rounded=0;orthogonalLoop=1;jettySize=auto;html=1;exitX=1;exitY=0.5;exitDx=0;exitDy=0;startArrow=classic;startFill=1;endArrow=none;endFill=0;" parent="xjDYs35orbcpSof1dm27-84" source="xjDYs35orbcpSof1dm27-25" edge="1">
          <mxGeometry relative="1" as="geometry">
            <mxPoint x="563" y="155" as="targetPoint"/>
          </mxGeometry>
        </mxCell>
        <mxCell id="xjDYs35orbcpSof1dm27-25" value="" style="rounded=1;whiteSpace=wrap;html=1;fillColor=#dae8fc;strokeColor=#6c8ebf;" parent="xjDYs35orbcpSof1dm27-84" vertex="1">
          <mxGeometry x="510" y="140" width="30" height="30" as="geometry"/>
        </mxCell>
        <mxCell id="xjDYs35orbcpSof1dm27-33" style="edgeStyle=none;rounded=0;orthogonalLoop=1;jettySize=auto;html=1;exitX=1;exitY=0.5;exitDx=0;exitDy=0;entryX=0;entryY=0.5;entryDx=0;entryDy=0;startArrow=classic;startFill=1;endArrow=none;endFill=0;" parent="xjDYs35orbcpSof1dm27-84" source="xjDYs35orbcpSof1dm27-21" target="xjDYs35orbcpSof1dm27-25" edge="1">
          <mxGeometry relative="1" as="geometry"/>
        </mxCell>
        <mxCell id="xjDYs35orbcpSof1dm27-49" style="edgeStyle=none;rounded=0;orthogonalLoop=1;jettySize=auto;html=1;exitX=1;exitY=0.5;exitDx=0;exitDy=0;startArrow=none;startFill=0;endArrow=classic;endFill=1;" parent="xjDYs35orbcpSof1dm27-84" source="xjDYs35orbcpSof1dm27-26" edge="1">
          <mxGeometry relative="1" as="geometry">
            <mxPoint x="563" y="115" as="targetPoint"/>
          </mxGeometry>
        </mxCell>
        <mxCell id="xjDYs35orbcpSof1dm27-26" value="" style="rounded=1;whiteSpace=wrap;html=1;fillColor=#fff2cc;strokeColor=#d6b656;" parent="xjDYs35orbcpSof1dm27-84" vertex="1">
          <mxGeometry x="455" y="100" width="30" height="30" as="geometry"/>
        </mxCell>
        <mxCell id="xjDYs35orbcpSof1dm27-48" style="edgeStyle=none;rounded=0;orthogonalLoop=1;jettySize=auto;html=1;exitX=1;exitY=0.5;exitDx=0;exitDy=0;entryX=0;entryY=0.5;entryDx=0;entryDy=0;startArrow=none;startFill=0;endArrow=classic;endFill=1;" parent="xjDYs35orbcpSof1dm27-84" source="xjDYs35orbcpSof1dm27-22" target="xjDYs35orbcpSof1dm27-26" edge="1">
          <mxGeometry relative="1" as="geometry"/>
        </mxCell>
        <mxCell id="xjDYs35orbcpSof1dm27-27" value="" style="endArrow=classic;html=1;exitX=0.5;exitY=0;exitDx=0;exitDy=0;entryX=0.5;entryY=1;entryDx=0;entryDy=0;" parent="xjDYs35orbcpSof1dm27-84" target="xjDYs35orbcpSof1dm27-25" edge="1">
          <mxGeometry width="50" height="50" relative="1" as="geometry">
            <mxPoint x="500" y="210" as="sourcePoint"/>
            <mxPoint x="505" y="260" as="targetPoint"/>
          </mxGeometry>
        </mxCell>
        <mxCell id="xjDYs35orbcpSof1dm27-50" value="The" style="text;html=1;strokeColor=none;fillColor=none;align=center;verticalAlign=middle;whiteSpace=wrap;rounded=0;" parent="xjDYs35orbcpSof1dm27-84" vertex="1">
          <mxGeometry x="79" y="251" width="40" height="20" as="geometry"/>
        </mxCell>
        <mxCell id="xjDYs35orbcpSof1dm27-51" value="Directors" style="text;html=1;strokeColor=none;fillColor=none;align=center;verticalAlign=middle;whiteSpace=wrap;rounded=0;" parent="xjDYs35orbcpSof1dm27-84" vertex="1">
          <mxGeometry x="159" y="251" width="40" height="20" as="geometry"/>
        </mxCell>
        <mxCell id="xjDYs35orbcpSof1dm27-52" value="accept" style="text;html=1;strokeColor=none;fillColor=none;align=center;verticalAlign=middle;whiteSpace=wrap;rounded=0;" parent="xjDYs35orbcpSof1dm27-84" vertex="1">
          <mxGeometry x="239" y="251" width="40" height="20" as="geometry"/>
        </mxCell>
        <mxCell id="xjDYs35orbcpSof1dm27-53" value="responsibility" style="text;html=1;strokeColor=none;fillColor=none;align=center;verticalAlign=middle;whiteSpace=wrap;rounded=0;" parent="xjDYs35orbcpSof1dm27-84" vertex="1">
          <mxGeometry x="319" y="251" width="40" height="20" as="geometry"/>
        </mxCell>
        <mxCell id="xjDYs35orbcpSof1dm27-54" value="accordingly" style="text;html=1;strokeColor=none;fillColor=none;align=center;verticalAlign=middle;whiteSpace=wrap;rounded=0;" parent="xjDYs35orbcpSof1dm27-84" vertex="1">
          <mxGeometry x="399" y="251" width="40" height="20" as="geometry"/>
        </mxCell>
        <mxCell id="xjDYs35orbcpSof1dm27-55" value="." style="text;html=1;strokeColor=none;fillColor=none;align=center;verticalAlign=middle;whiteSpace=wrap;rounded=0;" parent="xjDYs35orbcpSof1dm27-84" vertex="1">
          <mxGeometry x="479" y="251" width="40" height="20" as="geometry"/>
        </mxCell>
        <mxCell id="xjDYs35orbcpSof1dm27-56" value="backward" style="text;html=1;strokeColor=none;fillColor=none;align=center;verticalAlign=middle;whiteSpace=wrap;rounded=0;" parent="xjDYs35orbcpSof1dm27-84" vertex="1">
          <mxGeometry y="160" width="40" height="20" as="geometry"/>
        </mxCell>
        <mxCell id="xjDYs35orbcpSof1dm27-57" value="forward" style="text;html=1;strokeColor=none;fillColor=none;align=center;verticalAlign=middle;whiteSpace=wrap;rounded=0;" parent="xjDYs35orbcpSof1dm27-84" vertex="1">
          <mxGeometry y="90" width="40" height="20" as="geometry"/>
        </mxCell>
        <mxCell id="xjDYs35orbcpSof1dm27-59" value="" style="whiteSpace=wrap;html=1;aspect=fixed;fillColor=#e1d5e7;strokeColor=#9673a6;" parent="xjDYs35orbcpSof1dm27-84" vertex="1">
          <mxGeometry x="84" y="30" width="30" height="30" as="geometry"/>
        </mxCell>
        <mxCell id="xjDYs35orbcpSof1dm27-67" style="edgeStyle=none;rounded=0;orthogonalLoop=1;jettySize=auto;html=1;exitX=0.5;exitY=0;exitDx=0;exitDy=0;startArrow=none;startFill=0;endArrow=classic;endFill=1;entryX=0.5;entryY=1;entryDx=0;entryDy=0;" parent="xjDYs35orbcpSof1dm27-84" source="xjDYs35orbcpSof1dm27-1" target="xjDYs35orbcpSof1dm27-59" edge="1">
          <mxGeometry relative="1" as="geometry">
            <mxPoint x="94" y="60" as="targetPoint"/>
          </mxGeometry>
        </mxCell>
        <mxCell id="xjDYs35orbcpSof1dm27-65" style="edgeStyle=none;rounded=0;orthogonalLoop=1;jettySize=auto;html=1;exitX=0.5;exitY=0;exitDx=0;exitDy=0;entryX=0.5;entryY=1;entryDx=0;entryDy=0;startArrow=none;startFill=0;endArrow=classic;endFill=1;" parent="xjDYs35orbcpSof1dm27-84" source="xjDYs35orbcpSof1dm27-2" target="xjDYs35orbcpSof1dm27-59" edge="1">
          <mxGeometry relative="1" as="geometry"/>
        </mxCell>
        <mxCell id="xjDYs35orbcpSof1dm27-60" value="" style="whiteSpace=wrap;html=1;aspect=fixed;fillColor=#e1d5e7;strokeColor=#9673a6;" parent="xjDYs35orbcpSof1dm27-84" vertex="1">
          <mxGeometry x="164" y="30" width="30" height="30" as="geometry"/>
        </mxCell>
        <mxCell id="xjDYs35orbcpSof1dm27-69" style="edgeStyle=none;rounded=0;orthogonalLoop=1;jettySize=auto;html=1;exitX=0.5;exitY=0;exitDx=0;exitDy=0;startArrow=none;startFill=0;endArrow=classic;endFill=1;entryX=0.5;entryY=1;entryDx=0;entryDy=0;" parent="xjDYs35orbcpSof1dm27-84" source="xjDYs35orbcpSof1dm27-9" target="xjDYs35orbcpSof1dm27-60" edge="1">
          <mxGeometry relative="1" as="geometry">
            <mxPoint x="184" y="60" as="targetPoint"/>
          </mxGeometry>
        </mxCell>
        <mxCell id="xjDYs35orbcpSof1dm27-68" style="edgeStyle=none;rounded=0;orthogonalLoop=1;jettySize=auto;html=1;exitX=0.5;exitY=0;exitDx=0;exitDy=0;entryX=0.5;entryY=1;entryDx=0;entryDy=0;startArrow=none;startFill=0;endArrow=classic;endFill=1;" parent="xjDYs35orbcpSof1dm27-84" source="xjDYs35orbcpSof1dm27-10" target="xjDYs35orbcpSof1dm27-60" edge="1">
          <mxGeometry relative="1" as="geometry"/>
        </mxCell>
        <mxCell id="xjDYs35orbcpSof1dm27-61" value="" style="whiteSpace=wrap;html=1;aspect=fixed;fillColor=#e1d5e7;strokeColor=#9673a6;" parent="xjDYs35orbcpSof1dm27-84" vertex="1">
          <mxGeometry x="244" y="30" width="30" height="30" as="geometry"/>
        </mxCell>
        <mxCell id="xjDYs35orbcpSof1dm27-71" style="edgeStyle=none;rounded=0;orthogonalLoop=1;jettySize=auto;html=1;exitX=0.5;exitY=0;exitDx=0;exitDy=0;entryX=0.5;entryY=1;entryDx=0;entryDy=0;startArrow=none;startFill=0;endArrow=classic;endFill=1;" parent="xjDYs35orbcpSof1dm27-84" source="xjDYs35orbcpSof1dm27-13" target="xjDYs35orbcpSof1dm27-61" edge="1">
          <mxGeometry relative="1" as="geometry"/>
        </mxCell>
        <mxCell id="xjDYs35orbcpSof1dm27-70" style="edgeStyle=none;rounded=0;orthogonalLoop=1;jettySize=auto;html=1;exitX=0.5;exitY=0;exitDx=0;exitDy=0;entryX=0.5;entryY=1;entryDx=0;entryDy=0;startArrow=none;startFill=0;endArrow=classic;endFill=1;" parent="xjDYs35orbcpSof1dm27-84" source="xjDYs35orbcpSof1dm27-14" target="xjDYs35orbcpSof1dm27-61" edge="1">
          <mxGeometry relative="1" as="geometry"/>
        </mxCell>
        <mxCell id="xjDYs35orbcpSof1dm27-62" value="" style="whiteSpace=wrap;html=1;aspect=fixed;fillColor=#e1d5e7;strokeColor=#9673a6;" parent="xjDYs35orbcpSof1dm27-84" vertex="1">
          <mxGeometry x="324" y="30" width="30" height="30" as="geometry"/>
        </mxCell>
        <mxCell id="xjDYs35orbcpSof1dm27-73" style="edgeStyle=none;rounded=0;orthogonalLoop=1;jettySize=auto;html=1;exitX=0.5;exitY=0;exitDx=0;exitDy=0;startArrow=none;startFill=0;endArrow=classic;endFill=1;entryX=0.5;entryY=1;entryDx=0;entryDy=0;" parent="xjDYs35orbcpSof1dm27-84" source="xjDYs35orbcpSof1dm27-17" target="xjDYs35orbcpSof1dm27-62" edge="1">
          <mxGeometry relative="1" as="geometry">
            <mxPoint x="344" y="60" as="targetPoint"/>
          </mxGeometry>
        </mxCell>
        <mxCell id="xjDYs35orbcpSof1dm27-72" style="edgeStyle=none;rounded=0;orthogonalLoop=1;jettySize=auto;html=1;exitX=0.5;exitY=0;exitDx=0;exitDy=0;entryX=0.5;entryY=1;entryDx=0;entryDy=0;startArrow=none;startFill=0;endArrow=classic;endFill=1;" parent="xjDYs35orbcpSof1dm27-84" source="xjDYs35orbcpSof1dm27-18" target="xjDYs35orbcpSof1dm27-62" edge="1">
          <mxGeometry relative="1" as="geometry"/>
        </mxCell>
        <mxCell id="xjDYs35orbcpSof1dm27-63" value="" style="whiteSpace=wrap;html=1;aspect=fixed;fillColor=#e1d5e7;strokeColor=#9673a6;" parent="xjDYs35orbcpSof1dm27-84" vertex="1">
          <mxGeometry x="404" y="30" width="30" height="30" as="geometry"/>
        </mxCell>
        <mxCell id="xjDYs35orbcpSof1dm27-75" style="edgeStyle=none;rounded=0;orthogonalLoop=1;jettySize=auto;html=1;exitX=0.5;exitY=0;exitDx=0;exitDy=0;entryX=0.5;entryY=1;entryDx=0;entryDy=0;startArrow=none;startFill=0;endArrow=classic;endFill=1;" parent="xjDYs35orbcpSof1dm27-84" source="xjDYs35orbcpSof1dm27-21" target="xjDYs35orbcpSof1dm27-63" edge="1">
          <mxGeometry relative="1" as="geometry"/>
        </mxCell>
        <mxCell id="xjDYs35orbcpSof1dm27-74" style="edgeStyle=none;rounded=0;orthogonalLoop=1;jettySize=auto;html=1;exitX=0.5;exitY=0;exitDx=0;exitDy=0;entryX=0.5;entryY=1;entryDx=0;entryDy=0;startArrow=none;startFill=0;endArrow=classic;endFill=1;" parent="xjDYs35orbcpSof1dm27-84" source="xjDYs35orbcpSof1dm27-22" target="xjDYs35orbcpSof1dm27-63" edge="1">
          <mxGeometry relative="1" as="geometry"/>
        </mxCell>
        <mxCell id="xjDYs35orbcpSof1dm27-64" value="" style="whiteSpace=wrap;html=1;aspect=fixed;fillColor=#e1d5e7;strokeColor=#9673a6;" parent="xjDYs35orbcpSof1dm27-84" vertex="1">
          <mxGeometry x="484" y="30" width="30" height="30" as="geometry"/>
        </mxCell>
        <mxCell id="xjDYs35orbcpSof1dm27-77" style="edgeStyle=none;rounded=0;orthogonalLoop=1;jettySize=auto;html=1;exitX=0.5;exitY=0;exitDx=0;exitDy=0;entryX=0.5;entryY=1;entryDx=0;entryDy=0;startArrow=none;startFill=0;endArrow=classic;endFill=1;" parent="xjDYs35orbcpSof1dm27-84" source="xjDYs35orbcpSof1dm27-25" target="xjDYs35orbcpSof1dm27-64" edge="1">
          <mxGeometry relative="1" as="geometry"/>
        </mxCell>
        <mxCell id="xjDYs35orbcpSof1dm27-78" value="S" style="text;html=1;strokeColor=none;fillColor=none;align=center;verticalAlign=middle;whiteSpace=wrap;rounded=0;" parent="xjDYs35orbcpSof1dm27-84" vertex="1">
          <mxGeometry x="78" width="40" height="20" as="geometry"/>
        </mxCell>
        <mxCell id="xjDYs35orbcpSof1dm27-79" value="O" style="text;html=1;strokeColor=none;fillColor=none;align=center;verticalAlign=middle;whiteSpace=wrap;rounded=0;" parent="xjDYs35orbcpSof1dm27-84" vertex="1">
          <mxGeometry x="158" width="40" height="20" as="geometry"/>
        </mxCell>
        <mxCell id="xjDYs35orbcpSof1dm27-80" value="O" style="text;html=1;strokeColor=none;fillColor=none;align=center;verticalAlign=middle;whiteSpace=wrap;rounded=0;" parent="xjDYs35orbcpSof1dm27-84" vertex="1">
          <mxGeometry x="238" width="40" height="20" as="geometry"/>
        </mxCell>
        <mxCell id="xjDYs35orbcpSof1dm27-81" value="O" style="text;html=1;strokeColor=none;fillColor=none;align=center;verticalAlign=middle;whiteSpace=wrap;rounded=0;" parent="xjDYs35orbcpSof1dm27-84" vertex="1">
          <mxGeometry x="318" width="40" height="20" as="geometry"/>
        </mxCell>
        <mxCell id="xjDYs35orbcpSof1dm27-82" value="O" style="text;html=1;strokeColor=none;fillColor=none;align=center;verticalAlign=middle;whiteSpace=wrap;rounded=0;" parent="xjDYs35orbcpSof1dm27-84" vertex="1">
          <mxGeometry x="398" width="40" height="20" as="geometry"/>
        </mxCell>
        <mxCell id="xjDYs35orbcpSof1dm27-83" value="E" style="text;html=1;strokeColor=none;fillColor=none;align=center;verticalAlign=middle;whiteSpace=wrap;rounded=0;" parent="xjDYs35orbcpSof1dm27-84" vertex="1">
          <mxGeometry x="478" width="40" height="20" as="geometry"/>
        </mxCell>
        <mxCell id="xjDYs35orbcpSof1dm27-76" style="edgeStyle=none;rounded=0;orthogonalLoop=1;jettySize=auto;html=1;exitX=0.5;exitY=0;exitDx=0;exitDy=0;entryX=0.5;entryY=1;entryDx=0;entryDy=0;startArrow=none;startFill=0;endArrow=classic;endFill=1;" parent="xjDYs35orbcpSof1dm27-84" source="xjDYs35orbcpSof1dm27-26" target="xjDYs35orbcpSof1dm27-64" edge="1">
          <mxGeometry relative="1" as="geometry"/>
        </mxCell>
      </root>
    </mxGraphModel>
  </diagram>
</mxfile>
